<?xml version="1.0" encoding="UTF-8"?><svg id="Layer_1" xmlns="http://www.w3.org/2000/svg" viewBox="0 0 24 24"><path d="M21,8.4999v-1h-2v-1.6249c0-.4833-.3917-.875-.875-.875h-1.625v-2h-1v2h-1v-2h-1v2h-1v-2h-1v2h-1v-2h-1v2h-1v-2h-1v2h-1.625c-.4832,0-.875.3917-.875.875v1.6249h-2v1h2v1h-2v1h2v1h-2v1h2v1h-2v1h2v1h-2v1h2v1.6251c0,.4832.3918.875.875.875h1.625v2h1v-2h1v2h1v-2h1v2h1v-2h1v2h1v-2h1v2h1v-2h1.625c.4833,0,.875-.3918.875-.875v-1.6251h2v-1h-2v-1h2v-1h-2v-1h2v-1h-2v-1h2v-1h-2v-1h2ZM18,18H6V6h12v12Z"/><path d="M9.4073,14.6388c.0306.7552.7083,1.3612,1.5375,1.3612.4092,0,.7794-.15,1.0552-.3901.2758.2402.6458.3901,1.0548.3901.8249,0,1.5002-.5999,1.537-1.3503.8093-.196,1.4082-.8749,1.4082-1.68,0-.3483-.1142-.6854-.3218-.9695.2076-.2841.3218-.6212.3218-.9699,0-.7894-.5753-1.4575-1.4077-1.6669-.0293-.7565-.7079-1.3633-1.5375-1.3633-.4091,0-.7791.1499-1.0548.3901-.2758-.2402-.6459-.3901-1.0552-.3901-.8249,0-1.5007.5999-1.537,1.3503-.8093.1961-1.4077.8749-1.4077,1.68,0,.3488.1142.6858.3218.9699-.2076.2841-.3218.6212-.3218.9695,0,.7916.5786,1.4614,1.4073,1.6691ZM12.4833,9.4141c0-.2897.2562-.5257.5715-.5257s.572.236.572.5257c0,.0607-.0109.1198-.0325.1761l-.1685.5912h.6843c.5092,0,.9235.3809.9235.8489,0,.2438-.1137.4759-.3124.6368l-.411.3331.411.3331c.1987.1609.3124.393.3124.6364,0,.4676-.4134.848-.9698.848h-.0014l-.7037-.0148.2355.6082c.0217.0551.0325.1141.0325.1748,0,.2898-.2567.5258-.572.5258s-.5715-.236-.5715-.5258v-5.1718ZM9.2789,11.6671c-.1987-.1609-.3124-.393-.3124-.6368.0005-.468.4092-.8615.9613-.848l.7183.0308-.2402-.6229c-.0217-.0568-.033-.1163-.033-.1761,0-.2897.2567-.5257.572-.5257s.572.236.572.5257v5.1718c0,.2898-.2567.5258-.572.5258s-.572-.236-.572-.5258c0-.0598.0114-.1197.033-.1774l.1652-.59h-.6815c-.5092,0-.9231-.3809-.9231-.8489,0-.2433.1137-.4754.3124-.6364l.411-.3331-.411-.3331Z"/></svg>