<?xml version="1.0" encoding="UTF-8"?><svg id="Layer_1" xmlns="http://www.w3.org/2000/svg" viewBox="0 0 24 24"><g id="f257ae04-958a-4133-9a42-9f77be0b9967"><path d="M5.5,4c-1.3807,0-2.5,1.1193-2.5,2.5s1.1193,2.5,2.5,2.5,2.5-1.1193,2.5-2.5-1.1193-2.5-2.5-2.5ZM5.5,8c-.8284,0-1.5-.6716-1.5-1.5s.6716-1.5,1.5-1.5,1.5.6716,1.5,1.5-.6716,1.5-1.5,1.5Z" fill="#202020"/><path d="M18.5,4c-1.3807,0-2.5,1.1193-2.5,2.5s1.1193,2.5,2.5,2.5,2.5-1.1193,2.5-2.5-1.1193-2.5-2.5-2.5ZM18.5,8c-.8284,0-1.5-.6716-1.5-1.5s.6716-1.5,1.5-1.5,1.5.6716,1.5,1.5-.6716,1.5-1.5,1.5Z" fill="#202020"/><path d="M12,5c-1.6569,0-3,1.3431-3,3s1.3431,3,3,3,3-1.3431,3-3-1.3431-3-3-3ZM12,10c-1.1046,0-2-.8954-2-2s.8954-2,2-2,2,.8954,2,2-.8954,2-2,2Z" fill="#202020"/><path d="M22,12.65c.0055-1.458-1.1719-2.6445-2.63-2.65-.0067,0-.0134,0-.02,0h-1.7c-1.2822-.0043-2.3806.9167-2.6,2.18-.3736-.1108-.7604-.1713-1.15-.18h-3.8c-.3728.013-.7425.0735-1.1.18-.2223-1.2822-1.349-2.209-2.65-2.18h-1.7c-1.458-.0055-2.6445,1.1719-2.65,2.63,0,.0067,0,.0134,0,.02v2.35h4.17c-.1077.357-.1649.7272-.17,1.1v2.9h12v-2.9c-.0051-.3728-.0623-.743-.17-1.1h4.17v-2.35ZM3,14v-1.35c0-.9113.7387-1.65,1.65-1.65h1.7c.8921-.0004,1.623.7083,1.65,1.6-.579.3388-1.0612.821-1.4,1.4h-3.6ZM17,16.1v1.9H7v-1.9c.002-.3764.0732-.7493.21-1.1.1437-.3685.3539-.7074.62-1l.17-.17c.2926-.2661.6315-.4763,1-.62.3507-.1368.7236-.208,1.1-.21h3.8c.3764.002.7493.0732,1.1.21.3685.1437.7074.3539,1,.62l.17.17c.2661.2926.4763.6315.62,1,.1368.3507.208.7236.21,1.1ZM21,14h-3.6c-.3388-.579-.821-1.0612-1.4-1.4.027-.8917.7579-1.6004,1.65-1.6h1.7c.9113,0,1.65.7387,1.65,1.65v1.35Z" fill="#202020"/></g></svg>