<?xml version="1.0" encoding="UTF-8"?><svg id="Layer_1" xmlns="http://www.w3.org/2000/svg" viewBox="0 0 24 24"><path d="M3,3v18h18V3H3ZM20,20H4v-12h16v12ZM4,7v-3h16v3H4Z"/><circle cx="5.5" cy="5.5" r=".5"/><circle cx="7.5" cy="5.5" r=".5"/><circle cx="9.5" cy="5.5" r=".5"/><path d="M12,10c-2.322,0-6,3.5-6,3.5,0,0,3.678,3.5,6,3.5s6-3.5,6-3.5c0,0-3.678-3.5-6-3.5ZM7.504,13.5c1.1104-.9318,2.5768-1.9576,3.7087-2.3381-.7129.3058-1.2128,1.0132-1.2128,1.8381,0,1.1046.8954,2,2,2s2-.8954,2-2c0-.8249-.4999-1.5323-1.2128-1.8381,1.1319.3805,2.5983,1.4062,3.7088,2.3381-1.3909,1.1671-3.3498,2.5-4.496,2.5s-3.1051-1.3329-4.496-2.5ZM11.5368,11.0593c-.0174.0042-.0335.0112-.0507.0157.0162-.004.0346-.012.0507-.0157ZM12.4632,11.0593c.0161.0038.0345.0117.0507.0157-.0172-.0046-.0333-.0116-.0507-.0157Z"/></svg>