<?xml version="1.0" encoding="UTF-8"?><svg id="Layer_1" xmlns="http://www.w3.org/2000/svg" viewBox="0 0 24 24"><path d="M3,3v18h18V3H3ZM20,20H4V4h16v16Z"/><circle cx="6" cy="6" r="1"/><rect x="8" y="5.5" width="7" height="1"/><rect x="5" y="8" width="14" height="1"/><rect x="12" y="12" width="5" height="1"/><rect x="12" y="14" width="4" height="1"/><rect x="12" y="16" width="5" height="1"/><path d="M19,10H5v9h14v-9ZM18,18h-7v-1c0-.5523-.4477-1-1-1h-2c-.5523,0-1,.4477-1,1v1h-1v-7h12v7Z"/><circle cx="9" cy="14" r="1"/></svg>