<?xml version="1.0" encoding="UTF-8"?><svg id="Layer_1" xmlns="http://www.w3.org/2000/svg" viewBox="0 0 24 24"><path d="M16.4,9.5c-.6,0-1.1-.2-1.5-.5-.5-.4-.8-.9-1-1.5v-.5h-1.6v6.9c0,.7-.4,1.2-1,1.4-.2.1-.4.1-.5.1-.2,0-.5-.1-.7-.2-.4-.3-.7-.7-.7-1.2,0-.8.7-1.5,1.5-1.5.2,0,.3,0,.5.1v-1.6h-.5c-.9,0-1.7.4-2.4,1.1-.5.5-.7,1.2-.8,1.8-.1.9.3,1.8.9,2.4.1.1.2.2.3.3.5.2,1.1.4,1.8.4h.5c.7-.1,1.3-.4,1.7-.9.6-.6.9-1.4.9-2.2v-3.6c.3.2.6.4.9.5.5.2,1.1.3,1.6.3v-1.2l.1-.4h0Z"/><path d="M12,3c5,0,9,4,9,9s-4,9-9,9S3,17,3,12,7,3,12,3M12,2C6.5,2,2,6.5,2,12s4.5,10,10,10,10-4.5,10-10S17.5,2,12,2h0Z"/></svg>